<?xml version="1.0" encoding="UTF-8"?>
<svg xmlns="http://www.w3.org/2000/svg" xmlns:xlink="http://www.w3.org/1999/xlink" width="16px" height="16px" viewBox="0 0 16 16" version="1.1">
<g id="surface1">
<path style=" stroke:none;fill-rule:nonzero;fill:rgb(255,255,255);fill-opacity:1;" d="M 3.792969 9.277344 C 3.070312 9.277344 2.492188 9.855469 2.492188 10.578125 C 2.492188 11.296875 3.070312 11.878906 3.792969 11.878906 C 4.511719 11.878906 5.089844 11.296875 5.089844 10.578125 C 5.089844 9.855469 4.511719 9.277344 3.792969 9.277344 Z M 3.789062 11.226562 C 3.433594 11.226562 3.140625 10.9375 3.140625 10.578125 C 3.140625 10.21875 3.433594 9.929688 3.789062 9.929688 C 4.152344 9.929688 4.441406 10.21875 4.441406 10.578125 C 4.441406 10.9375 4.152344 11.226562 3.789062 11.226562 Z M 12.117188 9.277344 C 11.398438 9.277344 10.816406 9.855469 10.816406 10.578125 C 10.816406 11.296875 11.398438 11.878906 12.117188 11.878906 C 12.835938 11.878906 13.417969 11.296875 13.417969 10.578125 C 13.417969 9.855469 12.835938 9.277344 12.117188 9.277344 Z M 12.117188 11.226562 C 11.757812 11.226562 11.464844 10.9375 11.464844 10.578125 C 11.464844 10.21875 11.757812 9.929688 12.117188 9.929688 C 12.476562 9.929688 12.765625 10.21875 12.765625 10.578125 C 12.765625 10.9375 12.476562 11.226562 12.117188 11.226562 Z M 13.914062 7.082031 L 12.75 4.769531 C 12.542969 4.363281 12 4.027344 11.542969 4.027344 L 0.832031 4.027344 C 0.375 4.027344 0 4.402344 0 4.859375 L 0 10.980469 L 2.234375 10.980469 C 2.203125 10.851562 2.175781 10.714844 2.175781 10.574219 C 2.175781 9.683594 2.902344 8.960938 3.792969 8.960938 C 4.679688 8.960938 5.402344 9.6875 5.402344 10.574219 C 5.402344 10.714844 5.378906 10.851562 5.34375 10.980469 L 10.5625 10.980469 C 10.527344 10.851562 10.503906 10.714844 10.503906 10.574219 C 10.503906 9.683594 11.226562 8.960938 12.117188 8.960938 C 13.003906 8.960938 13.726562 9.6875 13.726562 10.574219 C 13.726562 10.714844 13.707031 10.851562 13.671875 10.980469 L 15.90625 10.980469 L 15.90625 9.179688 C 15.90625 8.722656 15.222656 7.238281 13.914062 7.082031 Z M 3.394531 7.082031 L 0.636719 7.082031 L 0.636719 4.644531 L 3.394531 4.644531 Z M 6.574219 7.082031 L 3.816406 7.082031 L 3.816406 4.644531 L 6.574219 4.644531 Z M 9.75 7.082031 L 6.996094 7.082031 L 6.996094 4.644531 L 9.753906 4.644531 L 9.753906 7.082031 Z M 10.539062 7.082031 L 10.539062 4.644531 L 11.359375 4.644531 C 11.652344 4.644531 12 4.855469 12.132812 5.117188 L 13.121094 7.082031 Z M 10.539062 7.082031 "/>
</g>
</svg>
