<svg xmlns="http://www.w3.org/2000/svg" xmlns:xlink="http://www.w3.org/1999/xlink" width="40" zoomAndPan="magnify" viewBox="0 0 30 30.000001" height="40" preserveAspectRatio="xMidYMid meet" version="1.0"><defs><clipPath id="1f02a57c9b"><path d="M 0.484375 3.957031 L 29.515625 3.957031 L 29.515625 25.007812 L 0.484375 25.007812 Z M 0.484375 3.957031 " clip-rule="nonzero"/></clipPath></defs><g clip-path="url(#1f02a57c9b)"><path fill="#000000" d="M 25.550781 9.222656 L 21.59375 9.222656 L 21.59375 3.957031 L 3.128906 3.957031 C 1.671875 3.957031 0.492188 5.136719 0.492188 6.589844 L 0.492188 21.0625 L 3.128906 21.0625 C 3.128906 23.238281 4.902344 25.007812 7.085938 25.007812 C 9.269531 25.007812 11.042969 23.238281 11.042969 21.0625 L 18.957031 21.0625 C 18.957031 23.238281 20.730469 25.007812 22.914062 25.007812 C 25.097656 25.007812 26.871094 23.238281 26.871094 21.0625 L 29.507812 21.0625 L 29.507812 14.484375 Z M 7.085938 23.035156 C 5.992188 23.035156 5.105469 22.152344 5.105469 21.0625 C 5.105469 19.96875 5.992188 19.085938 7.085938 19.085938 C 8.179688 19.085938 9.0625 19.96875 9.0625 21.0625 C 9.0625 22.152344 8.179688 23.035156 7.085938 23.035156 Z M 24.894531 11.195312 L 27.484375 14.484375 L 21.59375 14.484375 L 21.59375 11.195312 Z M 22.914062 23.035156 C 21.820312 23.035156 20.9375 22.152344 20.9375 21.0625 C 20.9375 19.96875 21.820312 19.085938 22.914062 19.085938 C 24.007812 19.085938 24.894531 19.96875 24.894531 21.0625 C 24.894531 22.152344 24.007812 23.035156 22.914062 23.035156 Z M 22.914062 23.035156 " fill-opacity="1" fill-rule="nonzero"/></g></svg>