<?xml version="1.0" encoding="UTF-8"?>
<svg xmlns="http://www.w3.org/2000/svg" xmlns:xlink="http://www.w3.org/1999/xlink" width="16px" height="16px" viewBox="0 0 16 16" version="1.1">
<defs>
<clipPath id="clip1">
  <path d="M 0.257812 4.800781 L 15.742188 4.800781 L 15.742188 14.398438 L 0.257812 14.398438 Z M 0.257812 4.800781 "/>
</clipPath>
</defs>
<g id="surface1">
<g clip-path="url(#clip1)" clip-rule="nonzero">
<path style=" stroke:none;fill-rule:nonzero;fill:rgb(24.705882%,68.235294%,16.470588%);fill-opacity:1;" d="M 4.296875 13.3125 L 3.945312 13.3125 C 3.894531 13.3125 3.863281 13.3125 3.800781 13.324219 C 3.753906 13.324219 3.707031 13.351562 3.660156 13.363281 C 3.609375 13.386719 3.578125 13.417969 3.550781 13.457031 C 3.515625 13.511719 3.503906 13.574219 3.503906 13.632812 C 3.492188 13.726562 3.542969 13.808594 3.609375 13.855469 C 3.707031 13.90625 3.800781 13.925781 3.90625 13.925781 L 3.976562 13.925781 C 4.011719 13.925781 4.046875 13.925781 4.070312 13.917969 L 4.175781 13.890625 C 4.214844 13.878906 4.246094 13.878906 4.285156 13.867188 L 4.285156 13.3125 Z M 4.746094 14.019531 C 4.746094 14.070312 4.726562 14.117188 4.675781 14.140625 C 4.621094 14.164062 4.558594 14.191406 4.503906 14.199219 C 4.445312 14.222656 4.371094 14.234375 4.300781 14.234375 C 4.230469 14.246094 4.160156 14.261719 4.101562 14.261719 L 3.910156 14.261719 C 3.769531 14.261719 3.640625 14.246094 3.496094 14.210938 C 3.402344 14.1875 3.308594 14.140625 3.238281 14.082031 C 3.179688 14.019531 3.132812 13.960938 3.109375 13.878906 C 3.082031 13.808594 3.074219 13.726562 3.074219 13.644531 C 3.074219 13.558594 3.082031 13.464844 3.121094 13.394531 C 3.144531 13.3125 3.191406 13.242188 3.261719 13.183594 C 3.332031 13.113281 3.425781 13.066406 3.511719 13.039062 C 3.628906 13.003906 3.757812 12.980469 3.886719 12.980469 L 4.3125 12.980469 L 4.3125 12.921875 C 4.3125 12.875 4.3125 12.828125 4.300781 12.792969 C 4.289062 12.757812 4.265625 12.722656 4.242188 12.6875 C 4.207031 12.648438 4.171875 12.628906 4.125 12.617188 C 4.066406 12.589844 3.992188 12.589844 3.933594 12.589844 C 3.839844 12.589844 3.746094 12.605469 3.652344 12.617188 C 3.570312 12.628906 3.488281 12.640625 3.40625 12.664062 L 3.347656 12.664062 C 3.335938 12.652344 3.324219 12.640625 3.324219 12.617188 L 3.273438 12.417969 C 3.261719 12.378906 3.273438 12.347656 3.308594 12.332031 C 3.417969 12.285156 3.539062 12.265625 3.652344 12.253906 C 3.773438 12.238281 3.890625 12.226562 4.007812 12.226562 C 4.265625 12.226562 4.457031 12.285156 4.585938 12.402344 C 4.714844 12.535156 4.789062 12.722656 4.761719 12.910156 Z M 7.109375 13.3125 L 6.757812 13.3125 C 6.707031 13.3125 6.664062 13.3125 6.613281 13.324219 C 6.566406 13.324219 6.519531 13.351562 6.472656 13.363281 C 6.421875 13.386719 6.390625 13.417969 6.363281 13.457031 C 6.328125 13.511719 6.316406 13.574219 6.316406 13.632812 C 6.304688 13.726562 6.351562 13.808594 6.421875 13.855469 C 6.503906 13.90625 6.609375 13.925781 6.707031 13.925781 L 6.773438 13.925781 C 6.8125 13.925781 6.847656 13.925781 6.882812 13.917969 C 6.917969 13.917969 6.953125 13.902344 6.988281 13.890625 C 7.023438 13.878906 7.058594 13.878906 7.097656 13.867188 Z M 7.542969 14.019531 C 7.542969 14.070312 7.519531 14.117188 7.476562 14.140625 C 7.417969 14.164062 7.355469 14.191406 7.296875 14.199219 C 7.238281 14.222656 7.167969 14.234375 7.109375 14.234375 C 7.039062 14.246094 6.980469 14.261719 6.910156 14.261719 L 6.722656 14.261719 C 6.578125 14.261719 6.4375 14.246094 6.304688 14.210938 C 6.210938 14.1875 6.117188 14.140625 6.046875 14.082031 C 5.988281 14.019531 5.941406 13.960938 5.917969 13.878906 C 5.890625 13.808594 5.882812 13.726562 5.882812 13.644531 C 5.882812 13.558594 5.890625 13.464844 5.929688 13.394531 C 5.953125 13.3125 6 13.242188 6.070312 13.183594 C 6.140625 13.113281 6.238281 13.066406 6.320312 13.039062 C 6.4375 13.003906 6.566406 12.980469 6.695312 12.980469 L 7.121094 12.980469 L 7.121094 12.921875 C 7.121094 12.875 7.121094 12.828125 7.109375 12.792969 C 7.097656 12.757812 7.085938 12.722656 7.050781 12.6875 C 7.015625 12.648438 6.980469 12.628906 6.933594 12.617188 C 6.875 12.589844 6.800781 12.589844 6.742188 12.589844 C 6.648438 12.589844 6.554688 12.605469 6.460938 12.617188 C 6.378906 12.628906 6.296875 12.640625 6.214844 12.664062 L 6.15625 12.664062 C 6.144531 12.664062 6.132812 12.640625 6.132812 12.617188 L 6.074219 12.417969 C 6.0625 12.378906 6.074219 12.347656 6.109375 12.332031 C 6.214844 12.285156 6.335938 12.265625 6.453125 12.253906 C 6.574219 12.238281 6.691406 12.226562 6.808594 12.226562 C 7.066406 12.226562 7.253906 12.285156 7.386719 12.402344 C 7.515625 12.546875 7.574219 12.722656 7.5625 12.910156 Z M 10.613281 12.578125 C 10.496094 12.578125 10.378906 12.628906 10.296875 12.722656 C 10.261719 12.769531 10.226562 12.816406 10.203125 12.875 C 10.175781 12.933594 10.164062 12.992188 10.164062 13.050781 L 11.027344 13.050781 C 11.027344 12.992188 11.015625 12.921875 11.003906 12.863281 C 10.988281 12.804688 10.964844 12.757812 10.929688 12.710938 C 10.894531 12.664062 10.863281 12.628906 10.800781 12.605469 C 10.757812 12.589844 10.683594 12.578125 10.613281 12.578125 M 10.613281 12.214844 C 10.898438 12.214844 11.109375 12.285156 11.253906 12.441406 C 11.394531 12.605469 11.464844 12.828125 11.453125 13.054688 C 11.453125 13.113281 11.453125 13.160156 11.425781 13.21875 C 11.414062 13.253906 11.390625 13.289062 11.359375 13.3125 C 11.332031 13.335938 11.300781 13.363281 11.265625 13.363281 C 11.226562 13.375 11.179688 13.375 11.144531 13.375 L 10.152344 13.375 C 10.152344 13.457031 10.164062 13.539062 10.203125 13.621094 C 10.226562 13.679688 10.261719 13.738281 10.308594 13.785156 C 10.355469 13.820312 10.414062 13.855469 10.472656 13.878906 C 10.542969 13.890625 10.601562 13.902344 10.671875 13.902344 C 10.757812 13.902344 10.824219 13.890625 10.910156 13.878906 C 10.980469 13.867188 11.050781 13.832031 11.109375 13.808594 C 11.160156 13.796875 11.179688 13.796875 11.195312 13.832031 L 11.289062 14.046875 C 11.3125 14.070312 11.300781 14.117188 11.265625 14.128906 L 11.253906 14.128906 C 11.160156 14.1875 11.050781 14.222656 10.945312 14.246094 C 10.835938 14.269531 10.730469 14.285156 10.625 14.285156 C 10.367188 14.308594 10.117188 14.210938 9.929688 14.035156 C 9.761719 13.871094 9.691406 13.609375 9.691406 13.269531 C 9.691406 13.117188 9.714844 12.976562 9.761719 12.832031 C 9.796875 12.710938 9.867188 12.597656 9.949219 12.5 C 10.035156 12.40625 10.125 12.347656 10.234375 12.300781 C 10.378906 12.238281 10.507812 12.214844 10.613281 12.214844 M 14.6875 13.3125 L 14.324219 13.3125 C 14.285156 13.3125 14.238281 13.3125 14.191406 13.324219 C 14.144531 13.324219 14.097656 13.351562 14.046875 13.363281 C 14 13.386719 13.964844 13.417969 13.941406 13.457031 C 13.90625 13.511719 13.894531 13.574219 13.894531 13.632812 C 13.882812 13.726562 13.929688 13.808594 14 13.855469 C 14.09375 13.90625 14.1875 13.925781 14.292969 13.925781 L 14.363281 13.925781 C 14.402344 13.925781 14.433594 13.925781 14.457031 13.917969 C 14.496094 13.917969 14.527344 13.902344 14.566406 13.890625 C 14.601562 13.878906 14.636719 13.878906 14.671875 13.867188 L 14.671875 13.3125 Z M 15.136719 14.019531 C 15.136719 14.070312 15.113281 14.117188 15.066406 14.140625 C 15.007812 14.164062 14.949219 14.191406 14.890625 14.199219 C 14.832031 14.222656 14.757812 14.234375 14.691406 14.234375 C 14.617188 14.246094 14.546875 14.261719 14.488281 14.261719 L 14.300781 14.261719 C 14.15625 14.261719 14.015625 14.246094 13.886719 14.210938 C 13.792969 14.1875 13.707031 14.140625 13.628906 14.082031 C 13.570312 14.019531 13.519531 13.960938 13.496094 13.878906 C 13.472656 13.808594 13.460938 13.726562 13.460938 13.644531 C 13.460938 13.558594 13.472656 13.464844 13.507812 13.394531 C 13.535156 13.3125 13.589844 13.242188 13.648438 13.183594 C 13.722656 13.113281 13.804688 13.066406 13.898438 13.039062 C 14.015625 13.003906 14.144531 12.980469 14.273438 12.980469 L 14.699219 12.980469 L 14.699219 12.921875 C 14.699219 12.875 14.699219 12.828125 14.691406 12.792969 C 14.675781 12.757812 14.652344 12.722656 14.632812 12.6875 C 14.59375 12.648438 14.558594 12.628906 14.511719 12.617188 C 14.453125 12.589844 14.382812 12.589844 14.324219 12.589844 C 14.230469 12.589844 14.136719 12.605469 14.042969 12.617188 C 13.957031 12.628906 13.886719 12.640625 13.804688 12.664062 L 13.746094 12.664062 C 13.734375 12.652344 13.722656 12.640625 13.722656 12.617188 L 13.664062 12.417969 C 13.648438 12.378906 13.664062 12.347656 13.699219 12.332031 C 13.804688 12.285156 13.925781 12.265625 14.042969 12.253906 C 14.164062 12.238281 14.28125 12.226562 14.394531 12.226562 C 14.65625 12.226562 14.84375 12.285156 14.976562 12.402344 C 15.105469 12.546875 15.164062 12.722656 15.152344 12.910156 Z M 3.140625 11.625 C 3.128906 11.613281 3.105469 11.601562 3.074219 11.601562 L 2.019531 11.601562 C 1.914062 11.601562 1.808594 11.613281 1.703125 11.660156 C 1.550781 11.714844 1.429688 11.859375 1.382812 12.023438 C 1.359375 12.105469 1.347656 12.1875 1.347656 12.285156 L 1.347656 14.160156 C 1.347656 14.195312 1.359375 14.207031 1.371094 14.21875 C 1.394531 14.230469 1.421875 14.230469 1.441406 14.230469 L 1.558594 14.230469 C 1.703125 14.230469 1.820312 14.109375 1.820312 13.972656 L 1.820312 13.085938 L 2.941406 13.085938 C 2.976562 13.085938 3 13.074219 3 13.066406 C 3.011719 13.039062 3.011719 13.015625 3.011719 13.007812 L 3.011719 12.792969 C 3.011719 12.769531 3.011719 12.742188 3 12.722656 C 2.988281 12.710938 2.976562 12.699219 2.941406 12.699219 L 1.820312 12.699219 L 1.820312 12.261719 C 1.820312 12.191406 1.832031 12.128906 1.878906 12.085938 C 1.9375 12.035156 2.011719 12.015625 2.078125 12.023438 L 3.082031 12.023438 C 3.121094 12.023438 3.140625 12.015625 3.140625 12.003906 C 3.152344 11.976562 3.167969 11.953125 3.167969 11.929688 L 3.167969 11.695312 C 3.152344 11.660156 3.152344 11.636719 3.140625 11.625 M 9.070312 13.546875 C 9.046875 13.617188 9.011719 13.691406 8.960938 13.746094 C 8.914062 13.796875 8.867188 13.84375 8.796875 13.867188 C 8.726562 13.890625 8.65625 13.902344 8.585938 13.902344 C 8.527344 13.902344 8.464844 13.902344 8.410156 13.890625 C 8.351562 13.878906 8.277344 13.867188 8.222656 13.855469 L 8.222656 12.648438 C 8.289062 12.628906 8.371094 12.613281 8.445312 12.601562 C 8.503906 12.589844 8.566406 12.589844 8.621094 12.589844 C 8.765625 12.578125 8.890625 12.648438 8.976562 12.753906 C 9.070312 12.894531 9.117188 13.074219 9.105469 13.25 C 9.113281 13.347656 9.105469 13.441406 9.070312 13.546875 M 9.503906 12.828125 C 9.46875 12.710938 9.421875 12.605469 9.351562 12.511719 C 9.285156 12.417969 9.1875 12.347656 9.09375 12.296875 C 8.976562 12.238281 8.832031 12.214844 8.703125 12.226562 C 8.621094 12.226562 8.550781 12.226562 8.464844 12.238281 C 8.386719 12.253906 8.316406 12.265625 8.230469 12.289062 L 8.230469 11.554688 C 8.230469 11.527344 8.230469 11.515625 8.21875 11.496094 C 8.207031 11.484375 8.179688 11.484375 8.160156 11.484375 L 8.042969 11.484375 C 7.898438 11.484375 7.792969 11.601562 7.792969 11.742188 L 7.792969 14.046875 C 7.792969 14.070312 7.792969 14.082031 7.804688 14.105469 C 7.820312 14.117188 7.832031 14.128906 7.855469 14.140625 C 7.972656 14.199219 8.089844 14.234375 8.222656 14.246094 C 8.351562 14.269531 8.480469 14.285156 8.609375 14.285156 C 8.753906 14.285156 8.902344 14.261719 9.035156 14.199219 C 9.152344 14.152344 9.246094 14.070312 9.332031 13.976562 C 9.414062 13.882812 9.472656 13.761719 9.496094 13.644531 C 9.53125 13.511719 9.550781 13.375 9.550781 13.230469 C 9.566406 13.101562 9.550781 12.957031 9.503906 12.828125 M 12.417969 14.136719 L 12.394531 13.9375 C 12.394531 13.925781 12.394531 13.902344 12.382812 13.902344 C 12.371094 13.890625 12.359375 13.890625 12.335938 13.902344 L 12.277344 13.914062 L 12.210938 13.914062 C 12.171875 13.914062 12.140625 13.902344 12.105469 13.878906 C 12.078125 13.839844 12.066406 13.792969 12.078125 13.746094 L 12.078125 11.550781 C 12.078125 11.523438 12.078125 11.511719 12.066406 11.503906 C 12.042969 11.488281 12.03125 11.488281 12.007812 11.488281 L 11.890625 11.488281 C 11.746094 11.488281 11.644531 11.605469 11.644531 11.746094 L 11.644531 13.828125 C 11.632812 13.945312 11.667969 14.074219 11.738281 14.171875 C 11.820312 14.238281 11.9375 14.273438 12.046875 14.265625 C 12.09375 14.265625 12.152344 14.265625 12.210938 14.253906 C 12.269531 14.238281 12.328125 14.226562 12.375 14.214844 C 12.386719 14.203125 12.410156 14.203125 12.421875 14.179688 C 12.429688 14.175781 12.429688 14.164062 12.417969 14.136719 M 13.390625 14.136719 L 13.367188 13.925781 C 13.367188 13.914062 13.355469 13.890625 13.355469 13.890625 L 13.304688 13.890625 L 13.234375 13.902344 L 13.164062 13.902344 C 13.128906 13.902344 13.097656 13.890625 13.058594 13.863281 C 13.035156 13.828125 13.035156 13.785156 13.035156 13.734375 L 13.035156 11.550781 C 13.035156 11.523438 13.035156 11.503906 13.023438 11.503906 C 12.996094 11.488281 12.984375 11.488281 12.964844 11.488281 L 12.847656 11.488281 C 12.703125 11.488281 12.597656 11.605469 12.597656 11.746094 L 12.597656 13.828125 C 12.585938 13.945312 12.621094 14.074219 12.695312 14.171875 C 12.773438 14.238281 12.894531 14.273438 13 14.265625 C 13.046875 14.265625 13.105469 14.265625 13.175781 14.253906 L 13.355469 14.214844 C 13.367188 14.203125 13.390625 14.191406 13.402344 14.179688 C 13.398438 14.175781 13.398438 14.164062 13.390625 14.136719 M 5.808594 14.136719 L 5.785156 13.9375 C 5.785156 13.914062 5.773438 13.902344 5.773438 13.902344 L 5.726562 13.902344 L 5.65625 13.914062 L 5.585938 13.914062 C 5.546875 13.914062 5.515625 13.902344 5.480469 13.878906 C 5.457031 13.839844 5.441406 13.792969 5.457031 13.746094 L 5.457031 11.550781 C 5.457031 11.523438 5.457031 11.503906 5.441406 11.503906 C 5.429688 11.488281 5.40625 11.488281 5.386719 11.488281 L 5.265625 11.488281 C 5.121094 11.488281 5.019531 11.605469 5.019531 11.746094 L 5.019531 13.828125 C 5.007812 13.945312 5.042969 14.074219 5.113281 14.171875 C 5.195312 14.238281 5.316406 14.273438 5.421875 14.265625 C 5.46875 14.265625 5.527344 14.265625 5.585938 14.253906 L 5.761719 14.214844 C 5.773438 14.203125 5.796875 14.191406 5.808594 14.179688 C 5.824219 14.175781 5.824219 14.164062 5.808594 14.136719 M 15.464844 9.949219 L 14.898438 9.382812 L 14.027344 8.519531 L 14.144531 8.496094 C 14.921875 8.332031 15.445312 7.847656 15.445312 6.914062 C 15.445312 5.816406 14.523438 5.210938 13.617188 5.210938 L 11.691406 5.210938 C 11.667969 5.210938 11.652344 5.210938 11.632812 5.226562 C 11.621094 5.238281 11.609375 5.261719 11.609375 5.285156 L 11.609375 10.050781 C 11.621094 10.089844 11.621094 10.101562 11.644531 10.109375 C 11.671875 10.121094 11.695312 10.121094 11.703125 10.109375 L 11.714844 10.109375 L 12.507812 9.992188 C 12.519531 9.992188 12.53125 9.992188 12.542969 9.980469 C 12.554688 9.964844 12.570312 9.945312 12.570312 9.921875 L 12.570312 6.144531 L 13.628906 6.144531 C 14.089844 6.144531 14.492188 6.480469 14.492188 6.902344 C 14.492188 7.328125 14.171875 7.550781 13.710938 7.65625 C 13.253906 7.765625 13.039062 8.097656 13.039062 8.449219 C 13.039062 8.683594 13.132812 8.917969 13.296875 9.082031 C 13.382812 9.191406 13.460938 9.285156 13.558594 9.378906 L 13.570312 9.390625 L 14.84375 10.691406 C 14.925781 10.738281 15.019531 10.773438 15.113281 10.773438 C 15.386719 10.773438 15.601562 10.558594 15.601562 10.289062 C 15.597656 10.160156 15.546875 10.042969 15.464844 9.949219 M 5.136719 8.710938 C 5.054688 8.660156 4.960938 8.628906 4.867188 8.628906 C 4.734375 8.628906 4.609375 8.683594 4.523438 8.777344 C 4.496094 8.816406 4.429688 8.875 4.40625 8.898438 C 3.671875 9.570312 2.539062 9.535156 1.867188 8.804688 C 1.195312 8.074219 1.230469 6.9375 1.960938 6.265625 C 2.292969 5.957031 2.730469 5.78125 3.1875 5.78125 C 3.625 5.757812 4.050781 5.925781 4.367188 6.21875 L 4.382812 6.230469 C 4.40625 6.242188 4.429688 6.242188 4.449219 6.242188 L 5.300781 6.113281 C 5.382812 6.101562 5.347656 6.03125 5.347656 6.03125 C 5.195312 5.757812 4.570312 4.789062 3.105469 4.800781 C 1.570312 4.8125 0.417969 6.015625 0.402344 7.585938 C 0.417969 9.121094 1.667969 10.371094 3.210938 10.363281 C 3.964844 10.363281 4.6875 10.042969 5.207031 9.5 C 5.234375 9.464844 5.265625 9.429688 5.292969 9.382812 C 5.339844 9.300781 5.359375 9.203125 5.359375 9.109375 C 5.351562 8.957031 5.265625 8.804688 5.136719 8.710938 M 10.390625 5.011719 C 9.988281 5.011719 9.761719 5.296875 9.585938 5.660156 L 8.5 7.972656 C 8.5 7.972656 8.488281 7.996094 8.476562 7.996094 C 8.464844 7.996094 8.453125 7.972656 8.453125 7.972656 L 7.519531 6.390625 L 7.238281 5.894531 C 7.226562 5.871094 7.203125 5.847656 7.191406 5.847656 L 7.167969 5.847656 L 5.902344 6.023438 C 5.890625 6.023438 5.878906 6.035156 5.867188 6.035156 C 5.855469 6.046875 5.839844 6.058594 5.839844 6.09375 L 5.839844 10.273438 C 5.855469 10.542969 6.078125 10.742188 6.351562 10.730469 C 6.597656 10.71875 6.796875 10.519531 6.808594 10.273438 L 6.808594 7.078125 L 8.191406 9.390625 L 8.484375 9.886719 C 8.484375 9.898438 8.496094 9.898438 8.511719 9.914062 C 8.523438 9.914062 8.535156 9.886719 8.535156 9.886719 L 8.769531 9.390625 L 10.152344 6.558594 L 10.152344 10.253906 C 10.152344 10.289062 10.164062 10.300781 10.191406 10.308594 L 10.261719 10.308594 L 11.0625 10.191406 C 11.074219 10.191406 11.101562 10.191406 11.109375 10.179688 C 11.121094 10.167969 11.136719 10.15625 11.136719 10.121094 L 11.136719 5.742188 C 11.109375 5.34375 10.792969 5.023438 10.390625 5.011719 "/>
</g>
</g>
</svg>
