<?xml version="1.0" encoding="UTF-8"?>
<svg xmlns="http://www.w3.org/2000/svg" xmlns:xlink="http://www.w3.org/1999/xlink" width="16px" height="16px" viewBox="0 0 16 16" version="1.1">
<defs>
<clipPath id="clip1">
  <path d="M 0.390625 0 L 15.621094 0 L 15.621094 16 L 0.390625 16 Z M 0.390625 0 "/>
</clipPath>
</defs>
<g id="surface1">
<path style=" stroke:none;fill-rule:nonzero;fill:rgb(0%,0%,0%);fill-opacity:1;" d="M 8.007812 3.960938 C 6.324219 3.960938 4.960938 5.390625 4.960938 7.15625 C 4.960938 8.921875 6.324219 10.355469 8.007812 10.355469 C 9.6875 10.355469 11.054688 8.921875 11.054688 7.15625 C 11.054688 5.390625 9.6875 3.960938 8.007812 3.960938 "/>
<g clip-path="url(#clip1)" clip-rule="nonzero">
<path style=" stroke:none;fill-rule:nonzero;fill:rgb(0%,0%,0%);fill-opacity:1;" d="M 13.066406 13.519531 C 12.390625 11.871094 10.976562 10.84375 8 10.84375 C 5.03125 10.84375 3.617188 11.871094 2.941406 13.511719 C 1.566406 12.117188 0.710938 10.164062 0.710938 8 C 0.710938 3.769531 3.976562 0.339844 8.007812 0.339844 C 12.035156 0.339844 15.304688 3.769531 15.304688 8 C 15.304688 10.167969 14.445312 12.125 13.066406 13.519531 Z M 8.007812 0.0078125 C 3.800781 0.0078125 0.390625 3.585938 0.390625 8 C 0.390625 10.308594 1.324219 12.390625 2.816406 13.847656 C 4.175781 15.179688 6 15.992188 8.007812 15.992188 C 10.007812 15.992188 11.832031 15.183594 13.191406 13.855469 C 14.6875 12.394531 15.621094 10.3125 15.621094 8 C 15.621094 3.585938 12.210938 0.0078125 8.007812 0.0078125 "/>
</g>
</g>
</svg>
