<?xml version="1.0" encoding="UTF-8"?>
<svg xmlns="http://www.w3.org/2000/svg" xmlns:xlink="http://www.w3.org/1999/xlink" width="16px" height="16px" viewBox="0 0 16 16" version="1.1">
<g id="lupa">
<path style=" stroke:none;fill-rule:nonzero;fill:rgb(0%,0%,0%);fill-opacity:1;" d="M 6.457031 0 C 3.035156 0 0.257812 2.777344 0.257812 6.199219 C 0.257812 9.625 3.035156 12.398438 6.457031 12.398438 C 7.773438 12.398438 8.996094 11.988281 10 11.289062 L 14.6875 15.976562 C 14.730469 16.019531 14.800781 16.019531 14.839844 15.980469 L 15.722656 15.097656 C 15.761719 15.058594 15.761719 14.988281 15.71875 14.945312 L 11.09375 10.320312 C 12.066406 9.222656 12.660156 7.78125 12.660156 6.199219 C 12.660156 2.777344 9.882812 0 6.457031 0 Z M 6.457031 11.671875 C 3.4375 11.671875 0.988281 9.222656 0.988281 6.199219 C 0.988281 3.179688 3.4375 0.730469 6.457031 0.730469 C 9.480469 0.730469 11.929688 3.179688 11.929688 6.199219 C 11.929688 9.222656 9.480469 11.671875 6.457031 11.671875 Z M 6.457031 11.671875 "/>
</g>
</svg>
