<?xml version="1.0" encoding="UTF-8"?>
<svg xmlns="http://www.w3.org/2000/svg" xmlns:xlink="http://www.w3.org/1999/xlink" width="16px" height="16px" viewBox="0 0 16 16" version="1.1">
<g id="surface1">
<path style=" stroke:none;fill-rule:nonzero;fill:rgb(0.392157%,0%,0.784314%);fill-opacity:1;" d="M 0 10.15625 L 3.121094 10.15625 C 2.914062 10.433594 2.789062 10.773438 2.789062 11.148438 L 1.25 11.148438 L 0 10.832031 Z M 15.90625 8.386719 L 15.90625 11.148438 L 14.582031 11.148438 C 14.582031 11.109375 14.578125 11.070312 14.574219 11.03125 C 14.558594 10.804688 14.496094 10.589844 14.398438 10.394531 C 14.125 9.859375 13.566406 9.492188 12.925781 9.492188 C 12.007812 9.492188 11.265625 10.234375 11.265625 11.148438 L 6.101562 11.148438 C 6.101562 10.773438 5.976562 10.433594 5.769531 10.15625 L 10.707031 10.15625 L 10.707031 4.410156 L 13.476562 4.410156 L 13.476562 5.070312 L 14.359375 7.722656 Z M 13.695312 7.722656 L 13.035156 5.734375 L 11.488281 5.734375 L 11.488281 7.722656 Z M 5.660156 11.148438 C 5.660156 11.820312 5.117188 12.363281 4.449219 12.363281 C 3.777344 12.363281 3.230469 11.816406 3.230469 11.148438 C 3.230469 10.480469 3.777344 9.933594 4.449219 9.933594 C 5.117188 9.933594 5.660156 10.476562 5.660156 11.148438 Z M 5.109375 11.148438 C 5.109375 10.78125 4.8125 10.484375 4.449219 10.484375 C 4.078125 10.484375 3.78125 10.78125 3.78125 11.148438 C 3.78125 11.515625 4.078125 11.808594 4.449219 11.808594 C 4.8125 11.808594 5.109375 11.515625 5.109375 11.148438 Z M 14.140625 11.148438 C 14.140625 11.820312 13.59375 12.363281 12.925781 12.363281 C 12.25 12.363281 11.707031 11.816406 11.707031 11.148438 C 11.707031 10.480469 12.253906 9.933594 12.925781 9.933594 C 13.59375 9.933594 14.140625 10.476562 14.140625 11.148438 Z M 13.585938 11.148438 C 13.585938 10.78125 13.289062 10.484375 12.925781 10.484375 C 12.554688 10.484375 12.261719 10.78125 12.261719 11.148438 C 12.261719 11.515625 12.554688 11.808594 12.925781 11.808594 C 13.289062 11.808594 13.585938 11.515625 13.585938 11.148438 Z M 10.136719 3.542969 L 0 3.542969 L 0 9.773438 L 10.136719 9.773438 Z M 10.136719 3.542969 "/>
</g>
</svg>
