<?xml version="1.0" encoding="UTF-8"?>
<svg xmlns="http://www.w3.org/2000/svg" xmlns:xlink="http://www.w3.org/1999/xlink" width="16px" height="16px" viewBox="0 0 16 16" version="1.1">
<g id="surface1">
<path style=" stroke:none;fill-rule:nonzero;fill:rgb(0%,0%,0%);fill-opacity:1;" d="M 2.964844 7.324219 L 3.851562 7.324219 C 4.441406 9.050781 6.078125 10.296875 8.003906 10.296875 C 9.382812 10.296875 10.613281 9.65625 11.417969 8.660156 L 12.558594 8.660156 C 12.769531 8.660156 12.941406 8.488281 12.941406 8.273438 L 12.941406 7.324219 L 13.113281 7.324219 C 13.527344 7.324219 13.867188 6.988281 13.867188 6.570312 L 13.867188 4.644531 C 13.867188 4.277344 13.601562 3.972656 13.253906 3.90625 C 13.003906 2.769531 12.386719 1.800781 11.457031 1.097656 C 10.503906 0.378906 9.308594 0 8.003906 0 C 5.351562 0 3.257812 1.570312 2.746094 3.925781 C 2.4375 4.019531 2.214844 4.308594 2.214844 4.644531 L 2.214844 6.570312 C 2.214844 6.988281 2.550781 7.324219 2.964844 7.324219 Z M 2.980469 6.558594 L 2.980469 4.660156 L 3.804688 4.660156 C 3.683594 5.058594 3.621094 5.480469 3.621094 5.914062 C 3.621094 6.132812 3.636719 6.347656 3.667969 6.558594 Z M 8.003906 9.53125 C 6.007812 9.53125 4.386719 7.910156 4.386719 5.914062 C 4.386719 3.921875 6.007812 2.300781 8.003906 2.300781 C 9.996094 2.300781 11.621094 3.921875 11.621094 5.914062 C 11.621094 6.644531 11.402344 7.324219 11.03125 7.890625 L 7.78125 7.890625 C 7.570312 7.890625 7.398438 8.0625 7.398438 8.273438 C 7.398438 8.488281 7.570312 8.660156 7.78125 8.660156 L 10.359375 8.660156 C 9.726562 9.203125 8.902344 9.53125 8.003906 9.53125 Z M 12.175781 7.890625 L 11.914062 7.890625 C 12.007812 7.710938 12.085938 7.519531 12.152344 7.324219 L 12.175781 7.324219 Z M 13.101562 6.558594 L 12.339844 6.558594 C 12.371094 6.347656 12.386719 6.132812 12.386719 5.914062 C 12.386719 5.480469 12.320312 5.058594 12.203125 4.660156 L 13.101562 4.660156 Z M 8.003906 0.765625 C 10.210938 0.765625 11.957031 2.007812 12.464844 3.894531 L 11.890625 3.894531 C 11.15625 2.492188 9.691406 1.53125 8.003906 1.53125 C 6.316406 1.53125 4.847656 2.492188 4.117188 3.894531 L 3.542969 3.894531 C 4.046875 2.007812 5.800781 0.765625 8.003906 0.765625 Z M 8.003906 0.765625 "/>
<path style=" stroke:none;fill-rule:nonzero;fill:rgb(0%,0%,0%);fill-opacity:1;" d="M 11.9375 10.464844 L 4.0625 10.464844 C 2.847656 10.464844 1.859375 11.457031 1.859375 12.671875 L 1.859375 15.617188 C 1.859375 15.828125 2.03125 16 2.242188 16 C 2.453125 16 2.625 15.828125 2.625 15.617188 L 2.625 12.671875 C 2.625 11.878906 3.269531 11.230469 4.0625 11.230469 L 11.9375 11.230469 C 12.730469 11.230469 13.375 11.878906 13.375 12.671875 L 13.375 15.617188 C 13.375 15.828125 13.546875 16 13.757812 16 C 13.96875 16 14.140625 15.828125 14.140625 15.617188 L 14.140625 12.671875 C 14.140625 11.457031 13.152344 10.464844 11.9375 10.464844 Z M 11.9375 10.464844 "/>
</g>
</svg>
