<?xml version="1.0" encoding="UTF-8"?>
<svg xmlns="http://www.w3.org/2000/svg" xmlns:xlink="http://www.w3.org/1999/xlink" width="16px" height="16px" viewBox="0 0 16 16" version="1.1">
<g id="surface1">
<path style=" stroke:none;fill-rule:nonzero;fill:rgb(0%,0%,0%);fill-opacity:1;" d="M 6.992188 2.304688 C 6.480469 2.59375 5.503906 2.960938 4.832031 3.121094 C 4.160156 3.265625 3.425781 3.441406 3.199219 3.503906 L 2.800781 3.632812 L 2.832031 5.96875 C 2.878906 10.449219 3.808594 12.222656 6.847656 13.742188 L 8.015625 14.320312 L 9.199219 13.710938 C 12.238281 12.144531 13.121094 10.449219 13.167969 5.96875 L 13.199219 3.617188 L 12.800781 3.488281 C 12.574219 3.425781 11.855469 3.265625 11.199219 3.121094 C 10.542969 2.976562 9.550781 2.609375 8.992188 2.304688 C 8.449219 2 7.96875 1.761719 7.953125 1.777344 C 7.9375 1.777344 7.503906 2.015625 6.992188 2.304688 Z M 9.023438 2.878906 C 9.550781 3.152344 10.609375 3.488281 11.359375 3.648438 L 12.71875 3.953125 L 12.6875 6.015625 C 12.640625 8.511719 12.449219 9.535156 11.792969 10.769531 C 11.230469 11.855469 10.609375 12.414062 9.089844 13.199219 L 8 13.777344 L 6.910156 13.199219 C 5.390625 12.414062 4.769531 11.855469 4.207031 10.769531 C 3.585938 9.585938 3.40625 8.734375 3.265625 6.144531 C 3.167969 4.160156 3.167969 4.03125 3.457031 3.953125 C 3.632812 3.902344 4.304688 3.742188 4.960938 3.617188 C 5.617188 3.472656 6.527344 3.152344 6.960938 2.894531 C 7.40625 2.640625 7.824219 2.433594 7.902344 2.414062 C 7.984375 2.398438 8.480469 2.625 9.023438 2.878906 Z M 9.023438 2.878906 "/>
<path style=" stroke:none;fill-rule:nonzero;fill:rgb(0%,0%,0%);fill-opacity:1;" d="M 9.457031 7.984375 C 8.753906 9.039062 8.097656 9.9375 8 10 C 7.921875 10.046875 7.34375 9.664062 6.71875 9.136719 C 5.566406 8.144531 5.28125 7.984375 5.28125 8.367188 C 5.28125 8.640625 7.742188 10.71875 8.03125 10.71875 C 8.222656 10.703125 11.199219 6.464844 11.199219 6.191406 C 11.199219 6.128906 11.089844 6.078125 10.960938 6.078125 C 10.832031 6.078125 10.144531 6.945312 9.457031 7.984375 Z M 9.457031 7.984375 "/>
</g>
</svg>
