<?xml version="1.0" encoding="UTF-8"?>
<svg xmlns="http://www.w3.org/2000/svg" xmlns:xlink="http://www.w3.org/1999/xlink" width="16px" height="16px" viewBox="0 0 16 16" version="1.1">
<g id="surface1">
<path style=" stroke:none;fill-rule:nonzero;fill:rgb(0%,0%,0%);fill-opacity:1;" d="M 4.332031 15.332031 C 4.066406 15.332031 3.832031 15.234375 3.632812 15.035156 C 3.433594 14.832031 3.332031 14.601562 3.332031 14.332031 L 3.332031 1.667969 C 3.332031 1.398438 3.433594 1.167969 3.632812 0.964844 C 3.832031 0.765625 4.066406 0.667969 4.332031 0.667969 L 11.667969 0.667969 C 11.933594 0.667969 12.167969 0.765625 12.367188 0.964844 C 12.566406 1.167969 12.667969 1.398438 12.667969 1.667969 L 12.667969 14.332031 C 12.667969 14.601562 12.566406 14.832031 12.367188 15.035156 C 12.167969 15.234375 11.933594 15.332031 11.667969 15.332031 Z M 4.332031 13.832031 L 4.332031 14.332031 L 11.667969 14.332031 L 11.667969 13.832031 Z M 4.332031 12.832031 L 11.667969 12.832031 L 11.667969 3.167969 L 4.332031 3.167969 Z M 4.332031 2.167969 L 11.667969 2.167969 L 11.667969 1.667969 L 4.332031 1.667969 Z M 4.332031 2.167969 L 4.332031 1.667969 Z M 4.332031 13.832031 L 4.332031 14.332031 Z M 4.332031 13.832031 "/>
</g>
</svg>
