<?xml version="1.0" encoding="UTF-8"?>
<svg xmlns="http://www.w3.org/2000/svg" xmlns:xlink="http://www.w3.org/1999/xlink" width="16px" height="16px" viewBox="0 0 16 16" version="1.1">
<g id="surface1">
<path style=" stroke:none;fill-rule:nonzero;fill:rgb(24.705882%,68.235294%,16.470588%);fill-opacity:1;" d="M 4.175781 13.109375 L 3.808594 13.109375 C 3.757812 13.109375 3.726562 13.109375 3.664062 13.125 C 3.613281 13.125 3.566406 13.160156 3.515625 13.175781 C 3.464844 13.210938 3.429688 13.257812 3.40625 13.304688 C 3.367188 13.386719 3.355469 13.46875 3.355469 13.550781 C 3.34375 13.679688 3.394531 13.792969 3.464844 13.859375 C 3.5625 13.925781 3.660156 13.957031 3.769531 13.957031 L 3.84375 13.957031 C 3.878906 13.957031 3.914062 13.957031 3.941406 13.941406 L 4.050781 13.90625 C 4.085938 13.890625 4.121094 13.890625 4.160156 13.875 L 4.160156 13.109375 Z M 4.640625 14.085938 C 4.640625 14.152344 4.617188 14.21875 4.566406 14.25 C 4.507812 14.28125 4.445312 14.316406 4.382812 14.328125 C 4.324219 14.363281 4.25 14.378906 4.179688 14.378906 C 4.105469 14.398438 4.03125 14.414062 3.96875 14.414062 L 3.773438 14.414062 C 3.628906 14.414062 3.496094 14.398438 3.347656 14.347656 C 3.25 14.3125 3.152344 14.25 3.082031 14.167969 C 3.019531 14.085938 2.96875 14.003906 2.945312 13.890625 C 2.917969 13.792969 2.90625 13.679688 2.90625 13.5625 C 2.90625 13.445312 2.917969 13.320312 2.957031 13.222656 C 2.980469 13.109375 3.03125 13.015625 3.105469 12.929688 C 3.179688 12.832031 3.273438 12.765625 3.359375 12.734375 C 3.480469 12.683594 3.617188 12.652344 3.75 12.652344 L 4.191406 12.652344 L 4.191406 12.574219 C 4.191406 12.507812 4.191406 12.445312 4.179688 12.394531 C 4.164062 12.34375 4.140625 12.296875 4.117188 12.246094 C 4.082031 12.195312 4.042969 12.167969 3.996094 12.148438 C 3.933594 12.117188 3.859375 12.117188 3.800781 12.117188 C 3.703125 12.117188 3.605469 12.132812 3.507812 12.148438 C 3.421875 12.167969 3.335938 12.183594 3.253906 12.21875 L 3.191406 12.21875 C 3.179688 12.199219 3.167969 12.183594 3.167969 12.148438 L 3.117188 11.875 C 3.105469 11.824219 3.117188 11.777344 3.15625 11.757812 C 3.265625 11.695312 3.386719 11.664062 3.507812 11.648438 C 3.632812 11.628906 3.753906 11.613281 3.875 11.613281 C 4.144531 11.613281 4.335938 11.695312 4.472656 11.855469 C 4.605469 12.035156 4.679688 12.296875 4.65625 12.554688 Z M 7.082031 13.109375 L 6.714844 13.109375 C 6.664062 13.109375 6.617188 13.109375 6.566406 13.125 C 6.519531 13.125 6.46875 13.160156 6.417969 13.175781 C 6.371094 13.210938 6.335938 13.257812 6.308594 13.304688 C 6.273438 13.386719 6.257812 13.46875 6.257812 13.550781 C 6.246094 13.679688 6.296875 13.792969 6.371094 13.859375 C 6.457031 13.925781 6.566406 13.957031 6.664062 13.957031 L 6.734375 13.957031 C 6.773438 13.957031 6.808594 13.957031 6.84375 13.941406 C 6.882812 13.941406 6.917969 13.921875 6.957031 13.90625 C 6.992188 13.890625 7.027344 13.890625 7.066406 13.875 Z M 7.53125 14.085938 C 7.53125 14.152344 7.503906 14.21875 7.457031 14.25 C 7.398438 14.28125 7.335938 14.316406 7.273438 14.328125 C 7.214844 14.363281 7.140625 14.378906 7.082031 14.378906 C 7.007812 14.398438 6.945312 14.414062 6.871094 14.414062 L 6.679688 14.414062 C 6.53125 14.414062 6.382812 14.398438 6.25 14.347656 C 6.152344 14.3125 6.054688 14.25 5.980469 14.167969 C 5.921875 14.085938 5.871094 14.003906 5.847656 13.890625 C 5.820312 13.792969 5.808594 13.679688 5.808594 13.5625 C 5.808594 13.445312 5.820312 13.320312 5.859375 13.222656 C 5.882812 13.109375 5.933594 13.015625 6.007812 12.929688 C 6.082031 12.832031 6.179688 12.765625 6.261719 12.734375 C 6.382812 12.683594 6.519531 12.652344 6.652344 12.652344 L 7.09375 12.652344 L 7.09375 12.574219 C 7.09375 12.507812 7.09375 12.445312 7.082031 12.394531 C 7.066406 12.34375 7.054688 12.296875 7.019531 12.246094 C 6.984375 12.195312 6.945312 12.167969 6.898438 12.148438 C 6.835938 12.117188 6.761719 12.117188 6.703125 12.117188 C 6.605469 12.117188 6.507812 12.132812 6.410156 12.148438 C 6.324219 12.167969 6.242188 12.183594 6.15625 12.21875 L 6.09375 12.21875 C 6.082031 12.21875 6.070312 12.183594 6.070312 12.148438 L 6.007812 11.875 C 5.996094 11.824219 6.007812 11.777344 6.046875 11.757812 C 6.15625 11.695312 6.28125 11.664062 6.402344 11.648438 C 6.523438 11.628906 6.648438 11.613281 6.769531 11.613281 C 7.035156 11.613281 7.230469 11.695312 7.367188 11.855469 C 7.5 12.054688 7.558594 12.296875 7.546875 12.554688 Z M 10.703125 12.101562 C 10.582031 12.101562 10.457031 12.167969 10.371094 12.296875 C 10.335938 12.363281 10.300781 12.425781 10.273438 12.507812 C 10.25 12.585938 10.238281 12.671875 10.238281 12.75 L 11.128906 12.75 C 11.128906 12.671875 11.117188 12.570312 11.101562 12.492188 C 11.089844 12.410156 11.066406 12.34375 11.03125 12.28125 C 10.992188 12.214844 10.957031 12.167969 10.894531 12.132812 C 10.847656 12.117188 10.773438 12.101562 10.703125 12.101562 M 10.703125 11.597656 C 10.996094 11.597656 11.214844 11.695312 11.359375 11.90625 C 11.507812 12.132812 11.582031 12.445312 11.566406 12.753906 C 11.566406 12.832031 11.566406 12.898438 11.542969 12.980469 C 11.53125 13.03125 11.503906 13.078125 11.46875 13.109375 C 11.445312 13.144531 11.410156 13.175781 11.371094 13.175781 C 11.335938 13.195312 11.289062 13.195312 11.25 13.195312 L 10.226562 13.195312 C 10.226562 13.304688 10.238281 13.421875 10.273438 13.53125 C 10.300781 13.613281 10.335938 13.695312 10.382812 13.757812 C 10.433594 13.808594 10.496094 13.855469 10.554688 13.890625 C 10.628906 13.90625 10.691406 13.921875 10.761719 13.921875 C 10.847656 13.921875 10.917969 13.90625 11.007812 13.890625 C 11.082031 13.875 11.15625 13.824219 11.214844 13.792969 C 11.265625 13.777344 11.289062 13.777344 11.300781 13.828125 L 11.398438 14.121094 C 11.421875 14.152344 11.410156 14.21875 11.371094 14.234375 L 11.359375 14.234375 C 11.261719 14.3125 11.152344 14.363281 11.042969 14.398438 C 10.933594 14.429688 10.820312 14.445312 10.710938 14.445312 C 10.445312 14.480469 10.1875 14.351562 9.992188 14.105469 C 9.820312 13.878906 9.746094 13.519531 9.746094 13.050781 C 9.746094 12.839844 9.773438 12.644531 9.820312 12.445312 C 9.855469 12.28125 9.929688 12.121094 10.015625 11.992188 C 10.101562 11.859375 10.195312 11.78125 10.308594 11.714844 C 10.457031 11.628906 10.59375 11.597656 10.703125 11.597656 M 14.910156 13.109375 L 14.53125 13.109375 C 14.496094 13.109375 14.445312 13.109375 14.398438 13.125 C 14.347656 13.125 14.300781 13.160156 14.25 13.175781 C 14.199219 13.210938 14.164062 13.257812 14.140625 13.304688 C 14.101562 13.386719 14.089844 13.46875 14.089844 13.550781 C 14.078125 13.679688 14.128906 13.792969 14.199219 13.859375 C 14.296875 13.925781 14.394531 13.957031 14.503906 13.957031 L 14.578125 13.957031 C 14.617188 13.957031 14.648438 13.957031 14.675781 13.941406 C 14.710938 13.941406 14.746094 13.921875 14.785156 13.90625 C 14.820312 13.890625 14.855469 13.890625 14.894531 13.875 L 14.894531 13.109375 Z M 15.375 14.085938 C 15.375 14.152344 15.351562 14.21875 15.304688 14.25 C 15.242188 14.28125 15.179688 14.316406 15.121094 14.328125 C 15.058594 14.363281 14.984375 14.378906 14.914062 14.378906 C 14.839844 14.398438 14.765625 14.414062 14.707031 14.414062 L 14.507812 14.414062 C 14.363281 14.414062 14.21875 14.398438 14.082031 14.347656 C 13.984375 14.3125 13.898438 14.25 13.816406 14.167969 C 13.753906 14.085938 13.707031 14.003906 13.679688 13.890625 C 13.65625 13.792969 13.644531 13.679688 13.644531 13.5625 C 13.644531 13.445312 13.65625 13.320312 13.691406 13.222656 C 13.71875 13.109375 13.777344 13.015625 13.839844 12.929688 C 13.914062 12.832031 13.996094 12.765625 14.09375 12.734375 C 14.21875 12.683594 14.351562 12.652344 14.484375 12.652344 L 14.925781 12.652344 L 14.925781 12.574219 C 14.925781 12.507812 14.925781 12.445312 14.914062 12.394531 C 14.898438 12.34375 14.875 12.296875 14.851562 12.246094 C 14.816406 12.195312 14.78125 12.167969 14.730469 12.148438 C 14.667969 12.117188 14.59375 12.117188 14.535156 12.117188 C 14.4375 12.117188 14.339844 12.132812 14.242188 12.148438 C 14.15625 12.167969 14.085938 12.183594 13.996094 12.21875 L 13.9375 12.21875 C 13.925781 12.199219 13.914062 12.183594 13.914062 12.148438 L 13.851562 11.875 C 13.839844 11.824219 13.851562 11.777344 13.890625 11.757812 C 14 11.695312 14.121094 11.664062 14.246094 11.648438 C 14.367188 11.628906 14.492188 11.613281 14.609375 11.613281 C 14.878906 11.613281 15.070312 11.695312 15.207031 11.855469 C 15.34375 12.054688 15.402344 12.296875 15.390625 12.554688 Z M 2.980469 10.78125 C 2.96875 10.765625 2.941406 10.75 2.90625 10.75 L 1.820312 10.75 C 1.710938 10.75 1.601562 10.765625 1.492188 10.828125 C 1.335938 10.910156 1.210938 11.105469 1.164062 11.332031 C 1.136719 11.445312 1.125 11.558594 1.125 11.691406 L 1.125 14.277344 C 1.125 14.328125 1.136719 14.34375 1.148438 14.355469 C 1.175781 14.375 1.199219 14.375 1.222656 14.375 L 1.34375 14.375 C 1.492188 14.375 1.613281 14.210938 1.613281 14.015625 L 1.613281 12.800781 L 2.773438 12.800781 C 2.808594 12.800781 2.832031 12.78125 2.832031 12.765625 C 2.84375 12.734375 2.84375 12.699219 2.84375 12.6875 L 2.84375 12.394531 C 2.84375 12.359375 2.84375 12.328125 2.832031 12.296875 C 2.820312 12.28125 2.808594 12.265625 2.773438 12.265625 L 1.617188 12.265625 L 1.617188 11.660156 C 1.617188 11.5625 1.628906 11.480469 1.675781 11.417969 C 1.734375 11.351562 1.808594 11.320312 1.882812 11.335938 L 2.917969 11.335938 C 2.957031 11.335938 2.980469 11.320312 2.980469 11.304688 C 2.992188 11.269531 3.003906 11.234375 3.003906 11.207031 L 3.003906 10.878906 C 2.992188 10.832031 2.992188 10.800781 2.980469 10.78125 M 9.105469 13.433594 C 9.082031 13.53125 9.042969 13.628906 8.996094 13.710938 C 8.945312 13.777344 8.898438 13.839844 8.824219 13.875 C 8.753906 13.90625 8.679688 13.921875 8.605469 13.921875 C 8.542969 13.921875 8.480469 13.921875 8.421875 13.90625 C 8.363281 13.890625 8.289062 13.875 8.226562 13.855469 L 8.226562 12.195312 C 8.300781 12.164062 8.382812 12.148438 8.460938 12.128906 C 8.519531 12.113281 8.582031 12.113281 8.644531 12.113281 C 8.789062 12.097656 8.921875 12.195312 9.007812 12.339844 C 9.105469 12.535156 9.15625 12.78125 9.144531 13.023438 C 9.152344 13.15625 9.140625 13.285156 9.105469 13.433594 M 9.554688 12.445312 C 9.519531 12.28125 9.46875 12.132812 9.398438 12.003906 C 9.324219 11.875 9.226562 11.777344 9.128906 11.710938 C 9.007812 11.628906 8.863281 11.597656 8.726562 11.613281 C 8.644531 11.613281 8.570312 11.613281 8.480469 11.628906 C 8.398438 11.648438 8.324219 11.664062 8.238281 11.695312 L 8.238281 10.6875 C 8.238281 10.652344 8.238281 10.636719 8.226562 10.605469 C 8.210938 10.589844 8.1875 10.589844 8.164062 10.589844 L 8.042969 10.589844 C 7.894531 10.589844 7.789062 10.753906 7.789062 10.945312 L 7.789062 14.121094 C 7.789062 14.152344 7.789062 14.171875 7.800781 14.199219 C 7.8125 14.21875 7.824219 14.234375 7.851562 14.25 C 7.972656 14.328125 8.09375 14.378906 8.226562 14.398438 C 8.363281 14.429688 8.496094 14.445312 8.628906 14.445312 C 8.777344 14.445312 8.933594 14.414062 9.070312 14.332031 C 9.191406 14.265625 9.289062 14.152344 9.375 14.023438 C 9.460938 13.894531 9.523438 13.730469 9.542969 13.566406 C 9.582031 13.386719 9.605469 13.195312 9.605469 12.996094 C 9.617188 12.816406 9.605469 12.621094 9.554688 12.445312 M 12.566406 14.246094 L 12.542969 13.96875 C 12.542969 13.953125 12.542969 13.921875 12.53125 13.921875 C 12.519531 13.902344 12.503906 13.902344 12.480469 13.921875 L 12.417969 13.9375 L 12.351562 13.9375 C 12.3125 13.9375 12.277344 13.921875 12.242188 13.886719 C 12.214844 13.835938 12.203125 13.773438 12.214844 13.707031 L 12.214844 10.679688 C 12.214844 10.648438 12.214844 10.628906 12.203125 10.613281 C 12.179688 10.597656 12.164062 10.597656 12.144531 10.597656 L 12.019531 10.597656 C 11.871094 10.597656 11.765625 10.757812 11.765625 10.953125 L 11.765625 13.816406 C 11.753906 13.980469 11.789062 14.15625 11.863281 14.289062 C 11.945312 14.386719 12.070312 14.4375 12.179688 14.421875 C 12.230469 14.421875 12.289062 14.421875 12.351562 14.402344 C 12.410156 14.386719 12.472656 14.371094 12.519531 14.351562 C 12.53125 14.335938 12.558594 14.335938 12.570312 14.304688 C 12.582031 14.296875 12.582031 14.28125 12.566406 14.246094 M 13.570312 14.246094 L 13.542969 13.953125 C 13.542969 13.9375 13.53125 13.902344 13.53125 13.902344 L 13.480469 13.902344 L 13.410156 13.921875 L 13.335938 13.921875 C 13.300781 13.921875 13.265625 13.902344 13.226562 13.871094 C 13.203125 13.820312 13.203125 13.757812 13.203125 13.691406 L 13.203125 10.679688 C 13.203125 10.648438 13.203125 10.613281 13.191406 10.613281 C 13.164062 10.597656 13.152344 10.597656 13.128906 10.597656 L 13.007812 10.597656 C 12.859375 10.597656 12.753906 10.757812 12.753906 10.953125 L 12.753906 13.816406 C 12.742188 13.980469 12.777344 14.15625 12.851562 14.289062 C 12.933594 14.386719 13.058594 14.4375 13.167969 14.421875 C 13.21875 14.421875 13.277344 14.421875 13.351562 14.402344 L 13.53125 14.351562 C 13.542969 14.335938 13.570312 14.320312 13.582031 14.304688 C 13.582031 14.296875 13.582031 14.28125 13.570312 14.246094 M 5.738281 14.246094 L 5.710938 13.96875 C 5.710938 13.9375 5.699219 13.921875 5.699219 13.921875 L 5.648438 13.921875 L 5.578125 13.9375 L 5.503906 13.9375 C 5.46875 13.9375 5.433594 13.921875 5.394531 13.886719 C 5.371094 13.835938 5.355469 13.773438 5.371094 13.707031 L 5.371094 10.679688 C 5.371094 10.648438 5.371094 10.613281 5.355469 10.613281 C 5.34375 10.597656 5.320312 10.597656 5.296875 10.597656 L 5.175781 10.597656 C 5.027344 10.597656 4.917969 10.757812 4.917969 10.953125 L 4.917969 13.816406 C 4.90625 13.980469 4.945312 14.15625 5.019531 14.289062 C 5.101562 14.386719 5.226562 14.4375 5.335938 14.421875 C 5.382812 14.421875 5.445312 14.421875 5.503906 14.402344 L 5.6875 14.351562 C 5.699219 14.335938 5.726562 14.320312 5.738281 14.304688 C 5.75 14.296875 5.75 14.28125 5.738281 14.246094 M 15.714844 8.472656 L 15.128906 7.695312 L 14.226562 6.507812 L 14.351562 6.472656 C 15.15625 6.246094 15.691406 5.578125 15.691406 4.292969 C 15.691406 2.78125 14.742188 1.949219 13.804688 1.949219 L 11.816406 1.949219 C 11.789062 1.949219 11.777344 1.949219 11.753906 1.96875 C 11.742188 1.984375 11.730469 2.015625 11.730469 2.046875 L 11.730469 8.617188 C 11.742188 8.667969 11.742188 8.683594 11.769531 8.695312 C 11.792969 8.714844 11.816406 8.714844 11.828125 8.695312 L 11.839844 8.695312 L 12.65625 8.53125 C 12.667969 8.53125 12.683594 8.53125 12.695312 8.515625 C 12.707031 8.5 12.71875 8.46875 12.71875 8.4375 L 12.71875 3.234375 L 13.816406 3.234375 C 14.292969 3.234375 14.707031 3.695312 14.707031 4.277344 C 14.707031 4.863281 14.378906 5.171875 13.902344 5.316406 C 13.429688 5.464844 13.207031 5.921875 13.207031 6.40625 C 13.207031 6.734375 13.304688 7.054688 13.476562 7.28125 C 13.558594 7.429688 13.644531 7.558594 13.742188 7.691406 L 13.753906 7.707031 L 15.070312 9.496094 C 15.15625 9.5625 15.253906 9.609375 15.351562 9.609375 C 15.632812 9.609375 15.851562 9.316406 15.851562 8.945312 C 15.851562 8.765625 15.800781 8.601562 15.714844 8.472656 M 5.042969 6.765625 C 4.957031 6.699219 4.859375 6.652344 4.761719 6.652344 C 4.628906 6.652344 4.496094 6.734375 4.40625 6.863281 C 4.382812 6.914062 4.308594 6.992188 4.285156 7.027344 C 3.527344 7.953125 2.355469 7.902344 1.664062 6.898438 C 0.96875 5.890625 1.003906 4.328125 1.757812 3.398438 C 2.101562 2.976562 2.554688 2.734375 3.027344 2.734375 C 3.480469 2.699219 3.917969 2.929688 4.246094 3.335938 L 4.257812 3.351562 C 4.285156 3.371094 4.308594 3.371094 4.332031 3.371094 L 5.210938 3.191406 C 5.292969 3.171875 5.257812 3.078125 5.257812 3.078125 C 5.101562 2.699219 4.457031 1.367188 2.941406 1.382812 C 1.355469 1.398438 0.164062 3.054688 0.148438 5.21875 C 0.164062 7.332031 1.457031 9.058594 3.054688 9.042969 C 3.832031 9.042969 4.578125 8.601562 5.117188 7.855469 C 5.140625 7.804688 5.175781 7.757812 5.199219 7.695312 C 5.25 7.578125 5.273438 7.449219 5.273438 7.320312 C 5.261719 7.105469 5.175781 6.898438 5.042969 6.765625 M 10.46875 1.671875 C 10.054688 1.671875 9.820312 2.0625 9.640625 2.566406 L 8.519531 5.753906 C 8.519531 5.753906 8.503906 5.785156 8.492188 5.785156 C 8.480469 5.785156 8.46875 5.753906 8.46875 5.753906 L 7.503906 3.574219 L 7.210938 2.890625 C 7.199219 2.855469 7.175781 2.824219 7.164062 2.824219 L 7.136719 2.824219 L 5.832031 3.066406 C 5.820312 3.066406 5.808594 3.082031 5.792969 3.082031 C 5.78125 3.101562 5.769531 3.117188 5.769531 3.164062 L 5.769531 8.921875 C 5.78125 9.292969 6.015625 9.570312 6.292969 9.554688 C 6.550781 9.535156 6.757812 9.257812 6.769531 8.921875 L 6.769531 4.519531 L 8.195312 7.707031 L 8.503906 8.390625 C 8.503906 8.40625 8.515625 8.40625 8.527344 8.421875 C 8.539062 8.421875 8.554688 8.390625 8.554688 8.390625 L 8.796875 7.707031 L 10.226562 3.804688 L 10.226562 8.894531 C 10.226562 8.945312 10.238281 8.960938 10.261719 8.972656 L 10.335938 8.972656 L 11.164062 8.808594 C 11.179688 8.808594 11.203125 8.808594 11.214844 8.792969 C 11.226562 8.777344 11.242188 8.757812 11.242188 8.714844 L 11.242188 2.679688 C 11.214844 2.128906 10.882812 1.691406 10.46875 1.671875 "/>
</g>
</svg>
