<?xml version="1.0" encoding="UTF-8"?>
<svg xmlns="http://www.w3.org/2000/svg" xmlns:xlink="http://www.w3.org/1999/xlink" width="16px" height="16px" viewBox="0 0 16 16" version="1.1">
<g id="surface1">
<path style=" stroke:none;fill-rule:nonzero;fill:rgb(0%,0%,0%);fill-opacity:1;" d="M 6.132812 14.101562 L 6.132812 13.71875 L 7.46875 12.75 L 7.46875 8.382812 L 1.765625 10.066406 L 1.765625 9.617188 L 7.46875 6.25 L 7.46875 2.300781 C 7.46875 2.15625 7.519531 2.03125 7.625 1.925781 C 7.730469 1.820312 7.855469 1.765625 8 1.765625 C 8.144531 1.765625 8.269531 1.820312 8.375 1.925781 C 8.480469 2.03125 8.53125 2.15625 8.53125 2.300781 L 8.53125 6.25 L 14.234375 9.617188 L 14.234375 10.066406 L 8.53125 8.382812 L 8.53125 12.71875 L 9.867188 13.71875 L 9.867188 14.101562 L 8 13.550781 Z M 6.132812 14.101562 "/>
</g>
</svg>
