<?xml version="1.0" encoding="UTF-8"?>
<svg xmlns="http://www.w3.org/2000/svg" xmlns:xlink="http://www.w3.org/1999/xlink" width="16px" height="px" viewBox="0 0 16 16" version="1.1">
<g id="grid__view">
<path style=" stroke:none;fill-rule:nonzero;fill:rgb(0%,0%,0%);fill-opacity:1;" d="M 2.867188 7.382812 L 2.867188 2.867188 L 7.382812 2.867188 L 7.382812 7.382812 Z M 2.867188 13.132812 L 2.867188 8.617188 L 7.382812 8.617188 L 7.382812 13.132812 Z M 8.617188 7.382812 L 8.617188 2.867188 L 13.132812 2.867188 L 13.132812 7.382812 Z M 8.617188 13.132812 L 8.617188 8.617188 L 13.132812 8.617188 L 13.132812 13.132812 Z M 3.234375 7.015625 L 7.015625 7.015625 L 7.015625 3.234375 L 3.234375 3.234375 Z M 8.984375 7.015625 L 12.765625 7.015625 L 12.765625 3.234375 L 8.984375 3.234375 Z M 8.984375 12.765625 L 12.765625 12.765625 L 12.765625 8.984375 L 8.984375 8.984375 Z M 3.234375 12.765625 L 7.015625 12.765625 L 7.015625 8.984375 L 3.234375 8.984375 Z M 8.984375 7.015625 Z M 8.984375 8.984375 Z M 7.015625 8.984375 Z M 7.015625 7.015625 Z M 7.015625 7.015625 "/>
</g>
</svg>
