<?xml version="1.0" encoding="UTF-8"?>
<svg xmlns="http://www.w3.org/2000/svg" xmlns:xlink="http://www.w3.org/1999/xlink" width="40px" height="40px" viewBox="0 0 40 40" version="1.1">
<g id="surface1">
<path style=" stroke:none;fill-rule:nonzero;fill:rgb(255%,255%,255%);fill-opacity:1;" d="M 0 25.386719 L 7.808594 25.386719 C 7.289062 26.082031 6.976562 26.929688 6.976562 27.867188 L 3.128906 27.867188 L 0 27.074219 Z M 39.769531 20.964844 L 39.769531 27.867188 L 36.453125 27.867188 C 36.453125 27.769531 36.441406 27.675781 36.433594 27.578125 C 36.398438 27.015625 36.242188 26.476562 35.996094 25.988281 C 35.308594 24.648438 33.917969 23.730469 32.3125 23.730469 C 30.023438 23.730469 28.167969 25.585938 28.167969 27.867188 L 15.257812 27.867188 C 15.257812 26.929688 14.945312 26.082031 14.421875 25.386719 L 26.765625 25.386719 L 26.765625 11.023438 L 33.691406 11.023438 L 33.691406 12.679688 L 35.898438 19.308594 Z M 34.238281 19.308594 L 32.589844 14.335938 L 28.71875 14.335938 L 28.71875 19.308594 Z M 14.152344 27.867188 C 14.152344 29.546875 12.792969 30.90625 11.117188 30.90625 C 9.4375 30.90625 8.082031 29.539062 8.082031 27.867188 C 8.082031 26.199219 9.441406 24.835938 11.117188 24.835938 C 12.792969 24.835938 14.152344 26.195312 14.152344 27.867188 Z M 12.773438 27.867188 C 12.773438 26.957031 12.027344 26.210938 11.117188 26.210938 C 10.199219 26.210938 9.453125 26.957031 9.453125 27.867188 C 9.453125 28.789062 10.199219 29.523438 11.117188 29.523438 C 12.027344 29.527344 12.773438 28.789062 12.773438 27.867188 Z M 35.347656 27.867188 C 35.347656 29.546875 33.984375 30.90625 32.3125 30.90625 C 30.625 30.90625 29.273438 29.539062 29.273438 27.867188 C 29.273438 26.199219 30.632812 24.835938 32.3125 24.835938 C 33.984375 24.835938 35.347656 26.195312 35.347656 27.867188 Z M 33.96875 27.867188 C 33.96875 26.957031 33.226562 26.210938 32.3125 26.210938 C 31.386719 26.210938 30.65625 26.957031 30.65625 27.867188 C 30.65625 28.789062 31.386719 29.523438 32.3125 29.523438 C 33.226562 29.527344 33.96875 28.789062 33.96875 27.867188 Z M 25.34375 8.859375 L 0 8.859375 L 0 24.433594 L 25.34375 24.433594 Z M 25.34375 8.859375 "/>
</g>
</svg>
