<?xml version="1.0" encoding="utf-8"?>
<!-- Generator: Adobe Illustrator 21.1.0, SVG Export Plug-In . SVG Version: 6.00 Build 0)  -->
<svg version="1.1" id="Layer_1" xmlns="http://www.w3.org/2000/svg" xmlns:xlink="http://www.w3.org/1999/xlink" x="0px" y="0px"
	 viewBox="0 0 640 480" style="enable-background:new 0 0 640 480;" xml:space="preserve">
<style type="text/css">
	.st0{fill:#3FAE2A;}
</style>
<path class="st0"  style=" stroke:none;fill-rule:nonzero;fill:rgb(255, 119, 51);fill-opacity:1;"  d="M167,393.3h-14.6c-2,0-3.4,0-5.9,0.5c-2,0-3.9,1-5.9,1.5c-2,1-3.4,2.4-4.4,3.9c-1.5,2.4-2,4.9-2,7.3
	c-0.5,3.9,1.5,7.3,4.4,9.3c3.9,2,7.8,2.9,12.2,2.9h2.9c1.5,0,2.9,0,3.9-0.5l4.4-1c1.5-0.5,2.9-0.5,4.4-1v-22.9L167,393.3L167,393.3z
	 M185.6,422.6c0,2-1,3.9-2.9,4.9c-2.4,1-4.9,2-7.3,2.4c-2.4,1-5.4,1.5-8.3,1.5c-2.9,0.5-5.9,1-8.3,1h-7.8c-5.9,0-11.2-0.5-17.1-2
	c-3.9-1-7.8-2.9-10.7-5.4c-2.4-2.4-4.4-4.9-5.4-8.3c-1-2.9-1.5-6.3-1.5-9.8s0.5-7.3,2-10.2c1-3.4,2.9-6.3,5.9-8.8
	c2.9-2.9,6.8-4.9,10.2-5.9c4.9-1.5,10.2-2.4,15.6-2.4h17.6v-2.4c0-2,0-3.9-0.5-5.4s-1.5-2.9-2.4-4.4c-1.5-1.5-2.9-2.4-4.9-2.9
	c-2.4-1-5.4-1-7.8-1c-3.9,0-7.8,0.5-11.7,1c-3.4,0.5-6.8,1-10.2,2h-2.4c-0.5-0.5-1-1-1-2l-2-8.3c-0.5-1.5,0-2.9,1.5-3.4
	c4.4-2,9.3-2.9,14.2-3.4s9.8-1,14.6-1c10.7,0,18.5,2.4,23.9,7.3c5.4,5.4,8.3,13.2,7.3,21L185.6,422.6L185.6,422.6z M283.2,393.3
	h-14.6c-2,0-3.9,0-5.9,0.5c-2,0-3.9,1-5.9,1.5c-2,1-3.4,2.4-4.4,3.9c-1.5,2.4-2,4.9-2,7.3c-0.5,3.9,1.5,7.3,4.4,9.3
	c3.4,2,7.8,2.9,11.7,2.9h2.9c1.5,0,2.9,0,4.4-0.5c1.5,0,2.9-0.5,4.4-1c1.5-0.5,2.9-0.5,4.4-1L283.2,393.3L283.2,393.3z M301.2,422.6
	c0,2-1,3.9-2.9,4.9c-2.4,1-4.9,2-7.3,2.4c-2.4,1-5.4,1.5-7.8,1.5c-2.9,0.5-5.4,1-8.3,1h-7.8c-5.9,0-11.7-0.5-17.1-2
	c-3.9-1-7.8-2.9-10.7-5.4c-2.4-2.4-4.4-4.9-5.4-8.3c-1-2.9-1.5-6.3-1.5-9.8s0.5-7.3,2-10.2c1-3.4,2.9-6.3,5.9-8.8
	c2.9-2.9,6.8-4.9,10.2-5.9c4.9-1.5,10.2-2.4,15.6-2.4h17.6v-2.4c0-2,0-3.9-0.5-5.4c-0.5-1.5-1-2.9-2.4-4.4s-2.9-2.4-4.9-2.9
	c-2.4-1-5.4-1-7.8-1c-3.9,0-7.8,0.5-11.7,1c-3.4,0.5-6.8,1-10.2,2h-2.4c-0.5,0-1-1-1-2l-2.4-8.3c-0.5-1.5,0-2.9,1.5-3.4
	c4.4-2,9.3-2.9,14.2-3.4c4.9-0.5,9.8-1,14.6-1c10.7,0,18.5,2.4,23.9,7.3c5.4,5.9,7.8,13.2,7.3,21L301.2,422.6L301.2,422.6z
	 M428.1,363c-4.9,0-9.8,2-13.2,5.9c-1.5,2-2.9,3.9-3.9,6.3c-1,2.4-1.5,4.9-1.5,7.3h35.6c0-2.4-0.5-5.4-1-7.8
	c-0.5-2.4-1.5-4.4-2.9-6.3c-1.5-2-2.9-3.4-5.4-4.4C433.9,363.5,431,363,428.1,363 M428.1,347.9c11.7,0,20.5,2.9,26.3,9.3
	c5.9,6.8,8.8,16.1,8.3,25.4c0,2.4,0,4.4-1,6.8c-0.5,1.5-1.5,2.9-2.9,3.9c-1,1-2.4,2-3.9,2c-1.5,0.5-3.4,0.5-4.9,0.5h-41
	c0,3.4,0.5,6.8,2,10.2c1,2.4,2.4,4.9,4.4,6.8c2,1.5,4.4,2.9,6.8,3.9c2.9,0.5,5.4,1,8.3,1c3.4,0,6.3-0.5,9.8-1c2.9-0.5,5.9-2,8.3-2.9
	c2-0.5,2.9-0.5,3.4,1l3.9,8.8c1,1,0.5,2.9-1,3.4h-0.5c-3.9,2.4-8.3,3.9-12.7,4.9c-4.4,1-8.8,1.5-13.2,1.5c-10.7,1-21-2.9-28.8-10.2
	c-6.8-6.8-9.8-17.6-9.8-31.7c0-6.3,1-12.2,2.9-18.1c1.5-4.9,4.4-9.8,7.8-13.7c3.4-3.9,7.3-6.3,11.7-8.3
	C418.3,348.9,423.7,347.9,428.1,347.9 M596.4,393.3h-15.1c-1.5,0-3.4,0-5.4,0.5c-2,0-3.9,1-5.9,1.5c-2,1-3.4,2.4-4.4,3.9
	c-1.5,2.4-2,4.9-2,7.3c-0.5,3.9,1.5,7.3,4.4,9.3c3.9,2,7.8,2.9,12.2,2.9h2.9c1.5,0,2.9,0,3.9-0.5c1.5,0,2.9-0.5,4.4-1s2.9-0.5,4.4-1
	v-22.9L596.4,393.3L596.4,393.3z M615,422.6c0,2-1,3.9-2.9,4.9c-2.4,1-4.9,2-7.3,2.4c-2.4,1-5.4,1.5-8.3,1.5c-2.9,0.5-5.9,1-8.3,1
	h-7.8c-5.9,0-11.7-0.5-17.1-2c-3.9-1-7.3-2.9-10.7-5.4c-2.4-2.4-4.4-4.9-5.4-8.3c-1-2.9-1.5-6.3-1.5-9.8s0.5-7.3,2-10.2
	c1-3.4,3.4-6.3,5.9-8.8c2.9-2.9,6.3-4.9,10.2-5.9c4.9-1.5,10.2-2.4,15.6-2.4h17.6v-2.4c0-2,0-3.9-0.5-5.4c-0.5-1.5-1.5-2.9-2.4-4.4
	c-1.5-1.5-2.9-2.4-4.9-2.9c-2.4-1-5.4-1-7.8-1c-3.9,0-7.8,0.5-11.7,1c-3.4,0.5-6.3,1-9.8,2h-2.4c-0.5-0.5-1-1-1-2l-2.4-8.3
	c-0.5-1.5,0-2.9,1.5-3.4c4.4-2,9.3-2.9,14.2-3.4s9.8-1,14.6-1c10.7,0,18.5,2.4,23.9,7.3c5.4,5.9,7.8,13.2,7.3,21L615,422.6
	L615,422.6z M119.2,323.5c-0.5-0.5-1.5-1-2.9-1H72.9c-4.4,0-8.8,0.5-13.2,2.4c-6.3,2.4-11.2,8.3-13.2,15.1c-1,3.4-1.5,6.8-1.5,10.7
	v77.6c0,1.5,0.5,2,1,2.4c1,0.5,2,0.5,2.9,0.5h4.9c5.9,0,10.7-4.9,10.7-10.7V384h46.4c1.5,0,2.4-0.5,2.4-1c0.5-1,0.5-2,0.5-2.4v-8.8
	c0-1,0-2-0.5-2.9c-0.5-0.5-1-1-2.4-1H64.6v-18.1c0-2.9,0.5-5.4,2.4-7.3c2.4-2,5.4-2.9,8.3-2.4h41.5c1.5,0,2.4-0.5,2.4-1
	c0.5-1,1-2,1-2.9v-9.8C119.7,325,119.7,324,119.2,323.5 M364.2,403c-1,2.9-2.4,5.9-4.4,8.3c-2,2-3.9,3.9-6.8,4.9s-5.9,1.5-8.8,1.5
	c-2.4,0-4.9,0-7.3-0.5s-5.4-1-7.8-1.5v-49.8c2.9-1,6.3-1.5,9.3-2c2.4-0.5,4.9-0.5,7.3-0.5c5.9-0.5,11.2,2.4,14.6,6.8
	c3.9,5.9,5.9,13.2,5.4,20.5C366.1,394.7,365.6,398.6,364.2,403 M382.2,373.3c-1.5-4.9-3.4-9.3-6.3-13.2c-2.9-3.9-6.8-6.8-10.7-8.8
	c-4.9-2.4-10.7-3.4-16.1-2.9c-3.4,0-6.3,0-9.8,0.5c-3.4,0.5-6.3,1-9.8,2v-30.3c0-1,0-1.5-0.5-2.4c-0.5-0.5-1.5-0.5-2.4-0.5h-4.9
	c-5.9,0-10.2,4.9-10.2,10.7v95.2c0,1,0,1.5,0.5,2.4c0.5,0.5,1,1,2,1.5c4.9,2.4,9.8,3.9,15.1,4.4c5.4,1,10.7,1.5,16.1,1.5
	c5.9,0,12.2-1,17.6-3.4c4.9-2,8.8-5.4,12.2-9.3c3.4-3.9,5.9-8.8,6.8-13.7c1.5-5.4,2.4-11.2,2.4-17.1
	C384.7,384.5,384.2,378.6,382.2,373.3 M502.7,427.4l-1-8.3c0-0.5,0-1.5-0.5-1.5c-0.5-0.5-1-0.5-2,0l-2.4,0.5H494
	c-1.5,0-2.9-0.5-4.4-1.5c-1-1.5-1.5-3.4-1-5.4v-90.8c0-1,0-1.5-0.5-2c-1-0.5-1.5-0.5-2.4-0.5h-4.9c-5.9,0-10.2,4.9-10.2,10.7v85.9
	c-0.5,4.9,1,10.2,3.9,14.2c3.4,2.9,8.3,4.4,12.7,3.9c2,0,4.4,0,6.8-0.5c2.4-0.5,4.9-1,6.8-1.5c0.5-0.5,1.5-0.5,2-1.5
	C503.2,428.9,503.2,428.4,502.7,427.4 M542.8,427.4l-1-8.8c0-0.5-0.5-1.5-0.5-1.5h-2l-2.9,0.5h-2.9c-1.5,0-2.9-0.5-4.4-1.5
	c-1-1.5-1-3.4-1-5.4v-90.3c0-1,0-2-0.5-2c-1-0.5-1.5-0.5-2.4-0.5h-4.9c-5.9,0-10.2,4.9-10.2,10.7v85.9c-0.5,4.9,1,10.2,3.9,14.2
	c3.4,2.9,8.3,4.4,12.7,3.9c2,0,4.4,0,7.3-0.5l7.3-1.5c0.5-0.5,1.5-1,2-1.5C543.2,428.9,543.2,428.4,542.8,427.4 M229.5,427.4l-1-8.3
	c0-1-0.5-1.5-0.5-1.5h-2l-2.9,0.5h-2.9c-1.5,0-2.9-0.5-4.4-1.5c-1-1.5-1.5-3.4-1-5.4v-90.8c0-1,0-2-0.5-2c-0.5-0.5-1.5-0.5-2.4-0.5
	H207c-5.9,0-10.2,4.9-10.2,10.7v85.9c-0.5,4.9,1,10.2,3.9,14.2c3.4,2.9,8.3,4.4,12.7,3.9c2,0,4.4,0,6.8-0.5l7.3-1.5
	c0.5-0.5,1.5-1,2-1.5C230,428.9,230,428.4,229.5,427.4 M628.6,254.2l-23.4-23.4l-36.1-35.6l4.9-1c32.2-6.8,53.7-26.8,53.7-65.4
	c0-45.4-38.1-70.3-75.6-70.3h-79.5c-1,0-1.5,0-2.4,0.5c-0.5,0.5-1,1.5-1,2.4v197.1c0.5,1.5,0.5,2,1.5,2.4c1,0.5,2,0.5,2.4,0h0.5
	l32.7-4.9c0.5,0,1,0,1.5-0.5c0.5-0.5,1-1.5,1-2.4V97.1h43.9c19,0,35.6,13.7,35.6,31.2c0,17.6-13.2,26.8-32.2,31.2
	s-27.8,18.1-27.8,32.7c0,9.8,3.9,19.5,10.7,26.3c3.4,4.4,6.8,8.3,10.7,12.2l0.5,0.5l52.7,53.7c3.4,2,7.3,3.4,11.2,3.4
	c11.2,0,20-8.8,20-20C634,263,632,258.1,628.6,254.2 M201.7,203c-3.4-2-7.3-3.4-11.2-3.4c-5.4,0-10.7,2.4-14.2,6.3
	c-1,1.5-3.9,3.9-4.9,4.9c-30.3,27.8-77.1,26.3-104.9-3.9S40.2,129.8,70.4,102c13.7-12.7,31.7-20,50.7-20c18.1-1,35.6,5.9,48.8,18.1
	l0.5,0.5c1,0.5,2,0.5,2.9,0.5l35.1-5.4c3.4-0.5,2-3.4,2-3.4C204.1,81,178.2,41,117.7,41.5C54.3,41.9,6.5,91.7,6,156.6
	C6.5,220,58.2,271.8,122.1,271.3c31.2,0,61-13.2,82.5-35.6c1-1.5,2.4-2.9,3.4-4.9c2-3.4,2.9-7.3,2.9-11.2
	C210.5,213.2,207,206.9,201.7,203 M418.8,50.2c-16.6,0-25.9,11.7-33.2,26.8l-44.9,95.6c0,0-0.5,1-1,1c-0.5,0-1-1-1-1l-38.5-65.4
	l-11.7-20.5c-0.5-1-1.5-2-2-2h-1l-52.2,7.3c-0.5,0-1,0.5-1.5,0.5c-0.5,0.5-1,1-1,2.4v172.7c0.5,11.2,9.8,19.5,21,19
	c10.2-0.5,18.5-8.8,19-19V135.6l57.1,95.6l12.2,20.5c0,0.5,0.5,0.5,1,1c0.5,0,1-1,1-1l9.8-20.5l57.1-117.1v152.7
	c0,1.5,0.5,2,1.5,2.4h2.9l33.2-4.9c0.5,0,1.5,0,2-0.5s1-1,1-2.4v-181C448.6,63.9,435.4,50.7,418.8,50.2"/>
</svg>
