<?xml version="1.0" encoding="UTF-8"?>
<svg xmlns="http://www.w3.org/2000/svg" xmlns:xlink="http://www.w3.org/1999/xlink" width="16px" height="16px" viewBox="0 0 16 16" version="1.1">
<g id="surface1">
<path style=" stroke:none;fill-rule:nonzero;fill:rgb(0%,0%,0%);fill-opacity:1;" d="M 4.449219 15.332031 C 4.148438 15.332031 3.890625 15.222656 3.667969 15 C 3.445312 14.777344 3.332031 14.515625 3.332031 14.21875 L 3.332031 1.78125 C 3.332031 1.484375 3.445312 1.222656 3.667969 1 C 3.890625 0.777344 4.148438 0.667969 4.449219 0.667969 L 11.550781 0.667969 C 11.851562 0.667969 12.109375 0.777344 12.332031 1 C 12.554688 1.222656 12.667969 1.484375 12.667969 1.78125 L 12.667969 14.21875 C 12.667969 14.515625 12.554688 14.777344 12.332031 15 C 12.109375 15.222656 11.851562 15.332031 11.550781 15.332031 Z M 4.449219 12.550781 L 4.449219 14.21875 L 11.550781 14.21875 L 11.550781 12.550781 Z M 8 13.949219 C 8.15625 13.949219 8.285156 13.894531 8.390625 13.78125 C 8.496094 13.671875 8.550781 13.539062 8.550781 13.382812 C 8.550781 13.226562 8.496094 13.097656 8.390625 12.992188 C 8.285156 12.886719 8.15625 12.832031 8 12.832031 C 7.84375 12.832031 7.714844 12.886719 7.609375 12.992188 C 7.503906 13.097656 7.449219 13.226562 7.449219 13.382812 C 7.449219 13.550781 7.503906 13.6875 7.609375 13.792969 C 7.714844 13.898438 7.84375 13.949219 8 13.949219 Z M 4.449219 11.449219 L 11.550781 11.449219 L 11.550781 3.449219 L 4.449219 3.449219 Z M 4.449219 2.332031 L 11.550781 2.332031 L 11.550781 1.78125 L 4.449219 1.78125 Z M 4.449219 12.550781 L 4.449219 14.21875 Z M 4.449219 2.332031 L 4.449219 1.78125 Z M 4.449219 2.332031 "/>
</g>
</svg>
